<svg xmlns="http://www.w3.org/2000/svg" xmlns:xlink="http://www.w3.org/1999/xlink" viewBox="0 0 453.02 137.32"><defs><style>.cls-1{isolation:isolate;}.cls-2{fill:#252525;}.cls-3{fill:#009eff;}.cls-4{fill:url(#linear-gradient);}.cls-10,.cls-13,.cls-5,.cls-8{mix-blend-mode:overlay;opacity:0.7;}.cls-5{fill:url(#linear-gradient-2);}.cls-11,.cls-6{mix-blend-mode:multiply;opacity:0.83;}.cls-6{fill:url(#linear-gradient-3);}.cls-7{fill:url(#linear-gradient-4);}.cls-8{fill:url(#linear-gradient-5);}.cls-9{fill:url(#linear-gradient-6);}.cls-10{fill:url(#linear-gradient-7);}.cls-11{fill:url(#linear-gradient-8);}.cls-12{fill:url(#linear-gradient-9);}.cls-13{fill:url(#linear-gradient-10);}</style><linearGradient id="linear-gradient" x1="340.3" y1="104.92" x2="407.06" y2="104.92" gradientTransform="matrix(-1, 0, 0, 1, 407.06, -0.01)" gradientUnits="userSpaceOnUse"><stop offset="0" stop-color="#00bef5"/><stop offset="1" stop-color="#007dc6"/></linearGradient><linearGradient id="linear-gradient-2" x1="340.3" y1="108.87" x2="407.06" y2="108.87" gradientTransform="matrix(-1, 0, 0, 1, 407.06, -0.01)" gradientUnits="userSpaceOnUse"><stop offset="0" stop-color="#fff"/><stop offset="1" stop-color="#fff" stop-opacity="0"/></linearGradient><linearGradient id="linear-gradient-3" x1="376.49" y1="86.5" x2="373.77" y2="105.8" gradientTransform="matrix(-1, 0, 0, 1, 407.06, 0)" gradientUnits="userSpaceOnUse"><stop offset="0" stop-color="#13355c"/><stop offset="1" stop-color="#fff" stop-opacity="0"/></linearGradient><linearGradient id="linear-gradient-4" x1="374.03" y1="50.25" x2="372.76" y2="91.82" gradientTransform="matrix(-1, 0, 0, 1, 407.06, 0)" xlink:href="#linear-gradient"/><linearGradient id="linear-gradient-5" x1="365.37" y1="20.92" x2="373.81" y2="69.86" gradientTransform="matrix(-1, 0, 0, 1, 407.06, 0)" xlink:href="#linear-gradient-2"/><linearGradient id="linear-gradient-6" x1="198.91" y1="73.35" x2="265.66" y2="73.35" gradientTransform="translate(-128.14 -0.01)" xlink:href="#linear-gradient"/><linearGradient id="linear-gradient-7" x1="198.91" y1="77.3" x2="265.66" y2="77.3" gradientTransform="translate(-128.14 -0.01)" xlink:href="#linear-gradient-2"/><linearGradient id="linear-gradient-8" x1="235.1" y1="54.93" x2="232.38" y2="74.23" gradientTransform="translate(-128.14)" xlink:href="#linear-gradient-3"/><linearGradient id="linear-gradient-9" x1="232.64" y1="18.68" x2="231.37" y2="60.25" gradientTransform="translate(-128.14)" xlink:href="#linear-gradient"/><linearGradient id="linear-gradient-10" x1="223.97" y1="-10.65" x2="232.41" y2="38.29" gradientTransform="translate(-128.14)" xlink:href="#linear-gradient-2"/></defs><g class="cls-1"><g id="Capa_2" data-name="Capa 2"><g id="BACKGROUND"><path class="cls-2" d="M174.17,69a27.37,27.37,0,0,1-9.21-1.5,21.46,21.46,0,0,1-7.31-4.29,19.89,19.89,0,0,1-4.83-6.55,20.74,20.74,0,0,1,0-16.63,20,20,0,0,1,4.83-6.55A21.63,21.63,0,0,1,165,29.16a27.37,27.37,0,0,1,9.21-1.5,26.53,26.53,0,0,1,10.4,1.93,20,20,0,0,1,7.65,5.56l-7.56,6.47a14.83,14.83,0,0,0-4.46-3.46A12.09,12.09,0,0,0,174.77,37a13.63,13.63,0,0,0-4.74.79,10.26,10.26,0,0,0-3.69,2.3,10.72,10.72,0,0,0-2.4,3.6,12.89,12.89,0,0,0,0,9.31,10.72,10.72,0,0,0,2.4,3.6,10.13,10.13,0,0,0,3.69,2.3,13.63,13.63,0,0,0,4.74.8,12.1,12.1,0,0,0,5.43-1.2A14.67,14.67,0,0,0,184.66,55l7.56,6.47A20.44,20.44,0,0,1,184.57,67,26.17,26.17,0,0,1,174.17,69Z"/><path class="cls-2" d="M198.52,68.18V28.45H217.7a25.51,25.51,0,0,1,9.93,1.76,14.43,14.43,0,0,1,6.45,5.08,13.64,13.64,0,0,1,2.28,7.86,13.27,13.27,0,0,1-2.28,7.75,14.33,14.33,0,0,1-6.45,5,25.71,25.71,0,0,1-9.93,1.73H205.11l5.28-4.71V68.18ZM210.39,54.1l-5.28-5.16H217q3.72,0,5.55-1.53a5.25,5.25,0,0,0,1.83-4.26,5.31,5.31,0,0,0-1.83-4.31q-1.83-1.53-5.55-1.53H205.11l5.28-5.17Zm14.09,14.08L214.05,53.71H226.7l10.49,14.47Z"/><path class="cls-2" d="M243.91,68.18V28.45h11.87V68.18Z"/><path class="cls-2" d="M280,69a39.47,39.47,0,0,1-9.92-1.22,26.37,26.37,0,0,1-7.77-3.15l3.9-8.28a28.68,28.68,0,0,0,6.5,2.81,25.74,25.74,0,0,0,7.35,1.1,15.15,15.15,0,0,0,4-.42,4.87,4.87,0,0,0,2.19-1.14,2.31,2.31,0,0,0,.69-1.67,2.43,2.43,0,0,0-1.32-2.16,12.29,12.29,0,0,0-3.42-1.3q-2.1-.51-4.65-1a49.41,49.41,0,0,1-5.09-1.31,20.91,20.91,0,0,1-4.65-2.07,10.43,10.43,0,0,1-3.42-3.35A9.6,9.6,0,0,1,263,40.54a10.87,10.87,0,0,1,2.07-6.47,14.19,14.19,0,0,1,6.21-4.65,26.43,26.43,0,0,1,10.31-1.76,37.43,37.43,0,0,1,8.13.88,27.19,27.19,0,0,1,7.1,2.58l-3.66,8.34a29.26,29.26,0,0,0-5.93-2.29,22.17,22.17,0,0,0-5.7-.77,13.35,13.35,0,0,0-4,.48,4.54,4.54,0,0,0-2.16,1.28,2.75,2.75,0,0,0-.66,1.81,2.34,2.34,0,0,0,1.29,2.08,11.9,11.9,0,0,0,3.42,1.24c1.42.33,3,.66,4.68,1s3.4.76,5.1,1.27a20.1,20.1,0,0,1,4.64,2A10.06,10.06,0,0,1,297.31,51a9.65,9.65,0,0,1,1.29,5.19,10.8,10.8,0,0,1-2.07,6.38,14.13,14.13,0,0,1-6.17,4.68A26.29,26.29,0,0,1,280,69Z"/><path class="cls-2" d="M313.41,68.18V37.36H300.52V28.45h37.6v8.91H325.29V68.18Z"/><path class="cls-2" d="M343.58,68.18V28.45h11.87V68.18Z"/><path class="cls-2" d="M359.89,68.18l18.53-39.73h11.69L408.7,68.18H396.35L381.84,34h4.67L372,68.18ZM370,60.46l3.06-8.28h20.51l3.06,8.28Z"/><path class="cls-2" d="M413.08,68.18V28.45h9.77L446,54.9h-4.62V28.45H453V68.18h-9.78L420.1,41.73h4.61V68.18Z"/><path class="cls-3" d="M151.08,108V78.09h21.56v1.35H152.72V92.06h16.92v1.31H152.72V108Z"/><path class="cls-3" d="M187.51,87.43a10.58,10.58,0,0,0-5.84,1.92,9.22,9.22,0,0,0-3.49,4.86V108h-1.6V86.13h1.55v5.51a10.84,10.84,0,0,1,3.4-3.78A9.54,9.54,0,0,1,186,86.13c.31,0,.6,0,.86,0h.64Z"/><path class="cls-3" d="M201,108.39a12,12,0,0,1-4.6-.88,11.49,11.49,0,0,1-6.23-6.07,10.89,10.89,0,0,1,0-8.67,11.79,11.79,0,0,1,2.51-3.64,11.23,11.23,0,0,1,3.75-2.45,12.13,12.13,0,0,1,9.12,0,11.66,11.66,0,0,1,6.28,6.09,10.58,10.58,0,0,1,.91,4.36,10.69,10.69,0,0,1-.89,4.31,11.23,11.23,0,0,1-2.51,3.61,11.74,11.74,0,0,1-3.75,2.46A11.9,11.9,0,0,1,201,108.39ZM190.88,97.18a9.35,9.35,0,0,0,1.36,5,10.28,10.28,0,0,0,13.83,3.55,10.32,10.32,0,0,0,3.68-3.63,9.71,9.71,0,0,0,0-10,10.43,10.43,0,0,0-3.68-3.61,10.12,10.12,0,0,0-10.1,0,10.49,10.49,0,0,0-3.71,3.66A9.53,9.53,0,0,0,190.88,97.18Z"/><path class="cls-3" d="M238,108h-1.6V95.79c0-3-.47-5.15-1.43-6.55a5.08,5.08,0,0,0-4.52-2.1,10.42,10.42,0,0,0-4.31,1,11.76,11.76,0,0,0-3.68,2.56,9.68,9.68,0,0,0-2.28,3.67V108h-1.59V86.13h1.55v5.46a10.12,10.12,0,0,1,2.65-3,13.18,13.18,0,0,1,3.72-2,12.5,12.5,0,0,1,4.22-.74,8,8,0,0,1,3.31.63,5.57,5.57,0,0,1,2.25,1.85,8.47,8.47,0,0,1,1.29,3.07,19.45,19.45,0,0,1,.42,4.28Z"/><path class="cls-3" d="M255.24,107.17l-.75.36a10.72,10.72,0,0,1-1.66.59,9,9,0,0,1-2.32.27,5.85,5.85,0,0,1-2.25-.42,3.77,3.77,0,0,1-1.64-1.25,3.24,3.24,0,0,1-.61-2V87.39h-3.47V86.13H246V78.6h1.59v7.53h5.77v1.26H247.6v17.15a2.36,2.36,0,0,0,1,1.87,3.8,3.8,0,0,0,2.16.63,6.64,6.64,0,0,0,2.65-.48,8.82,8.82,0,0,0,1.19-.57Z"/><path class="cls-3" d="M258.57,97.24V95.85h13.36v1.39Z"/><path class="cls-3" d="M289,108.39a12,12,0,0,1-8.41-3.39,11.33,11.33,0,0,1-2.53-3.66,10.93,10.93,0,0,1-.92-4.44,10.44,10.44,0,0,1,1.55-5.57,11.58,11.58,0,0,1,4.19-4,12.52,12.52,0,0,1,12,0,12.16,12.16,0,0,1,4.24,4.07A10.4,10.4,0,0,1,300.71,97v.34a1.24,1.24,0,0,1,0,.33H278.82a10.09,10.09,0,0,0,1.67,4.8,10.44,10.44,0,0,0,3.7,3.41,10,10,0,0,0,4.95,1.26,10.5,10.5,0,0,0,5-1.24,7.56,7.56,0,0,0,3.33-3.18l1.45.34a7.7,7.7,0,0,1-2.2,2.73,11.1,11.1,0,0,1-3.49,1.9A13,13,0,0,1,289,108.39ZM278.78,96.48h20.34a10.07,10.07,0,0,0-1.57-4.88,9.85,9.85,0,0,0-3.63-3.33,10.41,10.41,0,0,0-5-1.21A10.12,10.12,0,0,0,284,88.27a9.84,9.84,0,0,0-3.61,3.35A10,10,0,0,0,278.78,96.48Z"/><path class="cls-3" d="M325.46,108h-1.59V95.79q0-4.46-1.43-6.55a5.08,5.08,0,0,0-4.52-2.1,10.5,10.5,0,0,0-4.32,1,11.87,11.87,0,0,0-3.68,2.56,9.78,9.78,0,0,0-2.27,3.67V108h-1.59V86.13h1.54v5.46a10.26,10.26,0,0,1,2.65-3,13.1,13.1,0,0,1,3.73-2,12.46,12.46,0,0,1,4.22-.74,7.9,7.9,0,0,1,3.3.63,5.5,5.5,0,0,1,2.25,1.85A8.47,8.47,0,0,1,325,91.34a19.45,19.45,0,0,1,.42,4.28Z"/><path class="cls-3" d="M331,97.13a11.08,11.08,0,0,1,1.48-5.62,11.61,11.61,0,0,1,4-4.14,10.67,10.67,0,0,1,5.76-1.58,10.8,10.8,0,0,1,5.82,1.58A12.49,12.49,0,0,1,352,91.1V77.25h1.6v28.53a1,1,0,0,0,.23.67.8.8,0,0,0,.61.26V108a2.62,2.62,0,0,1-.84,0,2,2,0,0,1-1.08-.67,1.7,1.7,0,0,1-.42-1.1v-2.65a10.92,10.92,0,0,1-4.08,3.53,11.31,11.31,0,0,1-5.3,1.35,11.79,11.79,0,0,1-10.85-7.14A10.3,10.3,0,0,1,331,97.13Zm21,3.62V93.23a7.75,7.75,0,0,0-2.2-3.09A12.63,12.63,0,0,0,346.37,88a9.65,9.65,0,0,0-3.84-.82,9.54,9.54,0,0,0-4.06.84,9.79,9.79,0,0,0-3.11,2.27,10,10,0,0,0-2,3.21,10.29,10.29,0,0,0-.68,3.67,9.28,9.28,0,0,0,.78,3.76,9.91,9.91,0,0,0,2.2,3.19,10.37,10.37,0,0,0,3.28,2.19,10.23,10.23,0,0,0,4,.77,9.54,9.54,0,0,0,2.88-.48,12.43,12.43,0,0,0,2.91-1.36,8.82,8.82,0,0,0,2.27-2A4.7,4.7,0,0,0,352,100.75Z"/><path class="cls-3" d="M374.17,108V78.09h10.88a17.24,17.24,0,0,1,8.71,2A13,13,0,0,1,399,85.48,16.08,16.08,0,0,1,400.75,93a15.68,15.68,0,0,1-1.92,7.91,13.16,13.16,0,0,1-5.46,5.22,17.79,17.79,0,0,1-8.32,1.85Zm24.94-15a14.66,14.66,0,0,0-1.64-7,11.85,11.85,0,0,0-4.76-4.81,15.41,15.41,0,0,0-7.66-1.75h-9.24v27.18h9.24a15.32,15.32,0,0,0,7.73-1.79,11.63,11.63,0,0,0,4.73-4.9A14.9,14.9,0,0,0,399.11,93Z"/><path class="cls-3" d="M417,108.39a12,12,0,0,1-8.42-3.39,11.49,11.49,0,0,1-2.53-3.66,10.92,10.92,0,0,1-.91-4.44,10.35,10.35,0,0,1,1.55-5.57,11.5,11.5,0,0,1,4.19-4,12.5,12.5,0,0,1,11.95,0,12.19,12.19,0,0,1,4.25,4.07A10.4,10.4,0,0,1,428.64,97v.34a1.26,1.26,0,0,1-.05.33H406.75a10.18,10.18,0,0,0,1.66,4.8,10.56,10.56,0,0,0,3.71,3.41,10,10,0,0,0,4.94,1.26,10.57,10.57,0,0,0,5-1.24,7.56,7.56,0,0,0,3.33-3.18l1.45.34a7.7,7.7,0,0,1-2.2,2.73,11,11,0,0,1-3.5,1.9A13,13,0,0,1,417,108.39ZM406.7,96.48h20.35a10.07,10.07,0,0,0-1.57-4.88,10,10,0,0,0-3.64-3.33,10.37,10.37,0,0,0-5-1.21,10.19,10.19,0,0,0-4.95,1.21,9.92,9.92,0,0,0-3.61,3.35A10.17,10.17,0,0,0,406.7,96.48Z"/><path class="cls-3" d="M441,108,430.61,86.13h1.74l9.46,20.16,9.52-20.16H453L442.61,108Z"/><path class="cls-4" d="M65.36,105.13,6.88,73C3.53,71.14,0,74.87,0,80.25V92.54c0,4.33,1.73,8.24,4.39,9.88L59.9,136.75c3.27,2,6.86-1.61,6.86-6.94V108.15A3.43,3.43,0,0,0,65.36,105.13Z"/><path class="cls-5" d="M0,80.4V92.54c0,4.33,1.73,8.24,4.39,9.88L59.9,136.75c3.27,2,6.86-1.61,6.86-6.94V117.1Z"/><path class="cls-6" d="M6,74C3.48,72.67.85,75.44.85,79.44V91.58c0,4.34,1.74,8.24,4.39,9.88l52,32.14c3.18,2,6.67-1.57,6.67-6.76v-21Z"/><path class="cls-7" d="M9.48,94.49,65.36,63.76a3.41,3.41,0,0,0,1.4-3V39.09c0-5.34-3.59-9-6.86-7l-54,33.43C2.32,67.76,0,73,0,78.76v5.7C0,91.87,4.87,97,9.48,94.49Z"/><path class="cls-8" d="M0,78.76H0c0-5.79,2.32-11,5.86-13.19l54-33.43c3.27-2,6.86,1.61,6.86,7V60.92a3.58,3.58,0,0,1-1.26,2.93h0V49.39c0-5.34-3.59-9-6.86-6.94Z"/><path class="cls-9" d="M70.77,76.57V98.23c0,5.34,3.59,9,6.86,7l55.51-34.34c2.65-1.64,4.39-5.54,4.39-9.87V48.67c0-5.37-3.54-9.11-6.88-7.27L72.17,73.56A3.41,3.41,0,0,0,70.77,76.57Z"/><path class="cls-10" d="M70.77,85.53v12.7c0,5.34,3.59,9,6.86,7l55.51-34.34c2.65-1.64,4.39-5.54,4.39-9.87V48.82Z"/><path class="cls-11" d="M73.65,74.3v21c0,5.2,3.49,8.74,6.67,6.77l52-32.15c2.65-1.64,4.38-5.54,4.38-9.87V47.86c0-4-2.62-6.77-5.11-5.4Z"/><path class="cls-12" d="M137.53,52.89v-5.7c0-5.79-2.32-11-5.86-13.2L77.63.57c-3.27-2-6.86,1.61-6.86,7V29.17a3.43,3.43,0,0,0,1.4,3l55.88,30.72C132.65,65.45,137.53,60.29,137.53,52.89Z"/><path class="cls-13" d="M137.53,47.19h0c0-5.79-2.32-11-5.86-13.2L77.63.57c-3.27-2-6.86,1.61-6.86,7V29.34A3.54,3.54,0,0,0,72,32.27h0V17.82c0-5.34,3.58-9,6.86-7Z"/></g></g></g></svg>