<svg xmlns="http://www.w3.org/2000/svg" xmlns:xlink="http://www.w3.org/1999/xlink" viewBox="0 0 452.77 137.32"><defs><style>.cls-1{isolation:isolate;}.cls-2{fill:#fff;}.cls-3{fill:url(#linear-gradient);}.cls-12,.cls-4,.cls-7,.cls-9{mix-blend-mode:overlay;opacity:0.7;}.cls-4{fill:url(#linear-gradient-2);}.cls-10,.cls-5{mix-blend-mode:multiply;opacity:0.83;}.cls-5{fill:url(#linear-gradient-3);}.cls-6{fill:url(#linear-gradient-4);}.cls-7{fill:url(#linear-gradient-5);}.cls-8{fill:url(#linear-gradient-6);}.cls-9{fill:url(#linear-gradient-7);}.cls-10{fill:url(#linear-gradient-8);}.cls-11{fill:url(#linear-gradient-9);}.cls-12{fill:url(#linear-gradient-10);}.cls-13{fill:#009eff;}</style><linearGradient id="linear-gradient" x1="306.26" y1="104.92" x2="373.02" y2="104.92" gradientTransform="matrix(-1, 0, 0, 1, 373.02, -0.01)" gradientUnits="userSpaceOnUse"><stop offset="0" stop-color="#00bef5"/><stop offset="1" stop-color="#007dc6"/></linearGradient><linearGradient id="linear-gradient-2" x1="306.26" y1="108.87" x2="373.02" y2="108.87" gradientTransform="matrix(-1, 0, 0, 1, 373.02, -0.01)" gradientUnits="userSpaceOnUse"><stop offset="0" stop-color="#fff"/><stop offset="1" stop-color="#fff" stop-opacity="0"/></linearGradient><linearGradient id="linear-gradient-3" x1="342.45" y1="86.5" x2="339.73" y2="105.8" gradientTransform="matrix(-1, 0, 0, 1, 373.02, 0)" gradientUnits="userSpaceOnUse"><stop offset="0" stop-color="#13355c"/><stop offset="1" stop-color="#fff" stop-opacity="0"/></linearGradient><linearGradient id="linear-gradient-4" x1="339.99" y1="50.25" x2="338.72" y2="91.82" gradientTransform="matrix(-1, 0, 0, 1, 373.02, 0)" xlink:href="#linear-gradient"/><linearGradient id="linear-gradient-5" x1="331.33" y1="20.92" x2="339.76" y2="69.86" gradientTransform="matrix(-1, 0, 0, 1, 373.02, 0)" xlink:href="#linear-gradient-2"/><linearGradient id="linear-gradient-6" x1="198.91" y1="73.35" x2="265.66" y2="73.35" gradientTransform="translate(-128.14 -0.01)" xlink:href="#linear-gradient"/><linearGradient id="linear-gradient-7" x1="198.91" y1="77.3" x2="265.66" y2="77.3" gradientTransform="translate(-128.14 -0.01)" xlink:href="#linear-gradient-2"/><linearGradient id="linear-gradient-8" x1="235.1" y1="54.93" x2="232.38" y2="74.23" gradientTransform="translate(-128.14)" xlink:href="#linear-gradient-3"/><linearGradient id="linear-gradient-9" x1="232.64" y1="18.68" x2="231.37" y2="60.25" gradientTransform="translate(-128.14)" xlink:href="#linear-gradient"/><linearGradient id="linear-gradient-10" x1="223.97" y1="-10.65" x2="232.41" y2="38.29" gradientTransform="translate(-128.14)" xlink:href="#linear-gradient-2"/></defs><g class="cls-1"><g id="Capa_2" data-name="Capa 2"><g id="BACKGROUND"><path class="cls-2" d="M173,69a27.24,27.24,0,0,1-9.18-1.5,21.49,21.49,0,0,1-7.29-4.27,19.92,19.92,0,0,1-4.82-6.54A19.51,19.51,0,0,1,150,48.37a19.51,19.51,0,0,1,1.73-8.29,19.92,19.92,0,0,1,4.82-6.54,21.49,21.49,0,0,1,7.29-4.27,27.24,27.24,0,0,1,9.18-1.5,26.61,26.61,0,0,1,10.38,1.92A19.78,19.78,0,0,1,191,35.24l-7.54,6.45A14.63,14.63,0,0,0,179,38.24a12.18,12.18,0,0,0-5.42-1.19,13.51,13.51,0,0,0-4.72.79,10.2,10.2,0,0,0-3.68,2.29,10.7,10.7,0,0,0-2.39,3.6,12.81,12.81,0,0,0,0,9.28,10.56,10.56,0,0,0,2.39,3.59,10.08,10.08,0,0,0,3.68,2.3,13.51,13.51,0,0,0,4.72.79A12.18,12.18,0,0,0,179,58.5a14.63,14.63,0,0,0,4.45-3.45L191,61.5A20.34,20.34,0,0,1,183.38,67,26.25,26.25,0,0,1,173,69Z"/><path class="cls-2" d="M197.29,68.18V28.56h19.14a25.36,25.36,0,0,1,9.9,1.75,14.34,14.34,0,0,1,6.43,5.07A13.55,13.55,0,0,1,235,43.22,13.2,13.2,0,0,1,232.76,51a14.38,14.38,0,0,1-6.43,5,25.75,25.75,0,0,1-9.9,1.72H203.87l5.26-4.7V68.18Zm11.84-14L203.87,49h11.84c2.47,0,4.32-.51,5.53-1.53a5.21,5.21,0,0,0,1.83-4.24,5.29,5.29,0,0,0-1.83-4.3c-1.21-1-3.06-1.53-5.53-1.53H203.87l5.26-5.15Zm14.06,14L212.78,53.75H225.4l10.47,14.43Z"/><path class="cls-2" d="M242.57,68.18V28.56h11.84V68.18Z"/><path class="cls-2" d="M278.58,69a39.83,39.83,0,0,1-9.9-1.21,26.51,26.51,0,0,1-7.75-3.15l3.89-8.26a27.78,27.78,0,0,0,6.49,2.8,25.21,25.21,0,0,0,7.32,1.11,15,15,0,0,0,3.95-.43,4.87,4.87,0,0,0,2.19-1.13,2.34,2.34,0,0,0,.68-1.67,2.42,2.42,0,0,0-1.31-2.15,12.34,12.34,0,0,0-3.41-1.3c-1.4-.34-2.94-.68-4.64-1a49.83,49.83,0,0,1-5.08-1.3,20.83,20.83,0,0,1-4.64-2.07A10.46,10.46,0,0,1,263,45.85a9.65,9.65,0,0,1-1.31-5.24,10.89,10.89,0,0,1,2.06-6.45,14.24,14.24,0,0,1,6.19-4.64,26.37,26.37,0,0,1,10.29-1.75,37.77,37.77,0,0,1,8.1.87,26.85,26.85,0,0,1,7.09,2.58l-3.65,8.32a29,29,0,0,0-5.92-2.29,22.46,22.46,0,0,0-5.68-.77,13.27,13.27,0,0,0-3.95.48A4.58,4.58,0,0,0,274,38.24a2.75,2.75,0,0,0-.66,1.81,2.3,2.3,0,0,0,1.29,2.06,11.7,11.7,0,0,0,3.41,1.25c1.41.32,3,.65,4.66,1s3.39.77,5.09,1.27a19.82,19.82,0,0,1,4.63,2A10.09,10.09,0,0,1,295.83,51a9.64,9.64,0,0,1,1.29,5.18,10.77,10.77,0,0,1-2.07,6.37,14.1,14.1,0,0,1-6.16,4.67A26.31,26.31,0,0,1,278.58,69Z"/><path class="cls-2" d="M311.89,68.18V37.45H299V28.56h37.5v8.89h-12.8V68.18Z"/><path class="cls-2" d="M342,68.18V28.56h11.84V68.18Z"/><path class="cls-2" d="M358.25,68.18l18.48-39.62h11.66l18.54,39.62H394.61L380.14,34.05h4.66L370.33,68.18Zm10.1-7.7,3-8.26h20.46l3.05,8.26Z"/><path class="cls-2" d="M411.3,68.18V28.56h9.75l23.09,26.38h-4.61V28.56h11.61V68.18h-9.75L418.3,41.8h4.6V68.18Z"/><path class="cls-3" d="M65.36,105.13,6.88,73C3.53,71.14,0,74.87,0,80.25V92.54c0,4.33,1.73,8.24,4.39,9.88L59.9,136.75c3.27,2,6.86-1.61,6.86-6.94V108.15A3.43,3.43,0,0,0,65.36,105.13Z"/><path class="cls-4" d="M0,80.4V92.54c0,4.33,1.73,8.24,4.39,9.88L59.9,136.75c3.27,2,6.86-1.61,6.86-6.94V117.1Z"/><path class="cls-5" d="M6,74C3.48,72.67.85,75.44.85,79.44V91.58c0,4.34,1.74,8.24,4.39,9.88l52,32.14c3.18,2,6.67-1.57,6.67-6.76v-21Z"/><path class="cls-6" d="M9.48,94.49,65.36,63.76a3.41,3.41,0,0,0,1.4-3V39.09c0-5.34-3.59-9-6.86-7l-54,33.43C2.32,67.76,0,73,0,78.76v5.7C0,91.87,4.87,97,9.48,94.49Z"/><path class="cls-7" d="M0,78.76H0c0-5.79,2.32-11,5.86-13.19l54-33.43c3.27-2,6.86,1.61,6.86,7V60.92a3.58,3.58,0,0,1-1.26,2.93h0V49.39c0-5.34-3.59-9-6.86-6.94Z"/><path class="cls-8" d="M70.77,76.57V98.23c0,5.34,3.59,9,6.86,7l55.51-34.34c2.65-1.64,4.39-5.54,4.39-9.87V48.67c0-5.37-3.54-9.11-6.88-7.27L72.17,73.56A3.41,3.41,0,0,0,70.77,76.57Z"/><path class="cls-9" d="M70.77,85.53v12.7c0,5.34,3.59,9,6.86,7l55.51-34.34c2.65-1.64,4.39-5.54,4.39-9.87V48.82Z"/><path class="cls-10" d="M73.65,74.3v21c0,5.2,3.49,8.74,6.67,6.77l52-32.15c2.65-1.64,4.38-5.54,4.38-9.87V47.86c0-4-2.62-6.77-5.11-5.4Z"/><path class="cls-11" d="M137.53,52.89v-5.7c0-5.79-2.32-11-5.86-13.2L77.63.57c-3.27-2-6.86,1.61-6.86,7V29.17a3.43,3.43,0,0,0,1.4,3l55.88,30.72C132.65,65.45,137.53,60.29,137.53,52.89Z"/><path class="cls-12" d="M137.53,47.19h0c0-5.79-2.32-11-5.86-13.2L77.63.57c-3.27-2-6.86,1.61-6.86,7V29.34A3.54,3.54,0,0,0,72,32.27h0V17.82c0-5.34,3.58-9,6.86-7Z"/><path class="cls-13" d="M150,110.33v-30H171.6v1.35h-20V94.38h17v1.31h-17v14.64Z"/><path class="cls-13" d="M186.5,89.74a10.56,10.56,0,0,0-5.85,1.92,9.3,9.3,0,0,0-3.5,4.87v13.8h-1.6V88.43h1.55V94a10.94,10.94,0,0,1,3.41-3.8A9.72,9.72,0,0,1,185,88.43c.31,0,.6,0,.87,0h.63Z"/><path class="cls-13" d="M200,110.76a12,12,0,0,1-4.6-.89,11.36,11.36,0,0,1-3.76-2.46,11.68,11.68,0,0,1-2.5-3.62,10.81,10.81,0,0,1-.89-4.32,10.65,10.65,0,0,1,.92-4.38,12,12,0,0,1,2.51-3.65A11.56,11.56,0,0,1,195.48,89a12,12,0,0,1,12.91,2.46,11.7,11.7,0,0,1,2.54,3.65,10.64,10.64,0,0,1,.91,4.38,10.81,10.81,0,0,1-.89,4.32,11.41,11.41,0,0,1-2.52,3.62,11.78,11.78,0,0,1-3.76,2.46A12,12,0,0,1,200,110.76ZM189.89,99.51a9.42,9.42,0,0,0,1.36,5,10.16,10.16,0,0,0,3.67,3.58,10.38,10.38,0,0,0,10.2,0,10.3,10.3,0,0,0,3.69-3.64,9.71,9.71,0,0,0,0-10,10.41,10.41,0,0,0-3.69-3.62A10,10,0,0,0,200,89.45a9.79,9.79,0,0,0-5,1.36,10.52,10.52,0,0,0-3.71,3.67A9.51,9.51,0,0,0,189.89,99.51Z"/><path class="cls-13" d="M237.18,110.33h-1.6V98.12c0-3-.48-5.17-1.43-6.57a5.11,5.11,0,0,0-4.54-2.1,10.49,10.49,0,0,0-4.32.94A12,12,0,0,0,221.6,93a9.75,9.75,0,0,0-2.28,3.69v13.68h-1.6V88.43h1.55v5.48a10.19,10.19,0,0,1,2.66-3,12.89,12.89,0,0,1,3.73-2,12.56,12.56,0,0,1,4.23-.74,8,8,0,0,1,3.32.64,5.6,5.6,0,0,1,2.26,1.85,8.47,8.47,0,0,1,1.29,3.07,19.64,19.64,0,0,1,.42,4.3Z"/><path class="cls-13" d="M254.43,109.53l-.75.36a9.6,9.6,0,0,1-1.67.59,8.57,8.57,0,0,1-2.32.28,6,6,0,0,1-2.26-.43,3.79,3.79,0,0,1-1.65-1.25,3.32,3.32,0,0,1-.61-2V89.7h-3.48V88.43h3.48V80.88h1.6v7.55h5.78V89.7h-5.78v17.19a2.35,2.35,0,0,0,1,1.88,3.77,3.77,0,0,0,2.16.64,6.6,6.6,0,0,0,2.65-.49,8.62,8.62,0,0,0,1.2-.57Z"/><path class="cls-13" d="M257.77,99.57V98.18h13.4v1.39Z"/><path class="cls-13" d="M288.33,110.76a12.12,12.12,0,0,1-8.44-3.4,11.67,11.67,0,0,1-2.54-3.67,11,11,0,0,1-.91-4.45A10.39,10.39,0,0,1,278,93.65a11.47,11.47,0,0,1,4.2-4,12.51,12.51,0,0,1,12,0,12.07,12.07,0,0,1,4.26,4.08A10.44,10.44,0,0,1,300,99.37v.33a1.37,1.37,0,0,1,0,.34H278.08a10.16,10.16,0,0,0,1.67,4.81,10.68,10.68,0,0,0,3.71,3.42,10.11,10.11,0,0,0,5,1.26,10.55,10.55,0,0,0,5-1.24,7.56,7.56,0,0,0,3.34-3.19l1.46.34a7.77,7.77,0,0,1-2.21,2.74,11.15,11.15,0,0,1-3.5,1.9A13.12,13.12,0,0,1,288.33,110.76Zm-10.3-12h20.41a10,10,0,0,0-1.58-4.89,9.91,9.91,0,0,0-3.64-3.34,10.45,10.45,0,0,0-5-1.22,10.21,10.21,0,0,0-5,1.22,9.81,9.81,0,0,0-3.62,3.36A10.08,10.08,0,0,0,278,98.81Z"/><path class="cls-13" d="M324.86,110.33h-1.6V98.12c0-3-.48-5.17-1.44-6.57a5.09,5.09,0,0,0-4.53-2.1,10.5,10.5,0,0,0-4.33.94A12,12,0,0,0,309.27,93,9.75,9.75,0,0,0,307,96.65v13.68h-1.6V88.43h1.55v5.48a10.33,10.33,0,0,1,2.66-3,12.94,12.94,0,0,1,3.74-2,12.56,12.56,0,0,1,4.23-.74,7.94,7.94,0,0,1,3.31.64,5.53,5.53,0,0,1,2.26,1.85,8.47,8.47,0,0,1,1.29,3.07,19.59,19.59,0,0,1,.43,4.3Z"/><path class="cls-13" d="M330.45,99.47a11.11,11.11,0,0,1,1.48-5.65,11.83,11.83,0,0,1,4-4.15,11.42,11.42,0,0,1,11.61,0,12.56,12.56,0,0,1,3.95,3.73V79.53h1.6v28.61a1,1,0,0,0,.23.67.8.8,0,0,0,.61.26v1.26a2.35,2.35,0,0,1-.84,0,2,2,0,0,1-1.08-.67,1.72,1.72,0,0,1-.43-1.1v-2.66a11,11,0,0,1-4.09,3.55,11.32,11.32,0,0,1-5.31,1.35,11.67,11.67,0,0,1-8.44-3.52,12.06,12.06,0,0,1-2.44-3.64A10.38,10.38,0,0,1,330.45,99.47Zm21.06,3.62V95.55a7.88,7.88,0,0,0-2.21-3.09,12.33,12.33,0,0,0-3.48-2.19,9.7,9.7,0,0,0-3.85-.82,9.56,9.56,0,0,0-4.07.84,9.88,9.88,0,0,0-3.13,2.27,10.08,10.08,0,0,0-2,3.22,10.19,10.19,0,0,0-.69,3.69,9.36,9.36,0,0,0,.78,3.77,10.09,10.09,0,0,0,2.21,3.2,10.41,10.41,0,0,0,3.29,2.19,10.29,10.29,0,0,0,4,.78,9.37,9.37,0,0,0,2.89-.49,12.32,12.32,0,0,0,2.92-1.37,9,9,0,0,0,2.28-2A4.82,4.82,0,0,0,351.51,103.09Z"/><path class="cls-13" d="M373.7,110.33v-30h10.9a17.3,17.3,0,0,1,8.75,2,13.09,13.09,0,0,1,5.24,5.4,16,16,0,0,1,1.76,7.53,15.76,15.76,0,0,1-1.92,7.93,13.25,13.25,0,0,1-5.48,5.24,17.76,17.76,0,0,1-8.35,1.85Zm25-15a14.56,14.56,0,0,0-1.65-7,11.88,11.88,0,0,0-4.77-4.84,15.61,15.61,0,0,0-7.69-1.75h-9.26V109h9.26a15.41,15.41,0,0,0,7.76-1.79,11.72,11.72,0,0,0,4.75-4.92A15.11,15.11,0,0,0,398.71,95.31Z"/><path class="cls-13" d="M416.62,110.76a12.12,12.12,0,0,1-8.44-3.4,11.67,11.67,0,0,1-2.54-3.67,11,11,0,0,1-.92-4.45,10.4,10.4,0,0,1,1.56-5.59,11.47,11.47,0,0,1,4.2-4,12.51,12.51,0,0,1,12,0,12,12,0,0,1,4.25,4.08,10.37,10.37,0,0,1,1.6,5.66v.33a1.37,1.37,0,0,1,0,.34H406.37a10.16,10.16,0,0,0,1.67,4.81,10.59,10.59,0,0,0,3.71,3.42,10.11,10.11,0,0,0,5,1.26,10.58,10.58,0,0,0,5-1.24,7.56,7.56,0,0,0,3.34-3.19l1.46.34a7.77,7.77,0,0,1-2.21,2.74,11.15,11.15,0,0,1-3.5,1.9A13.12,13.12,0,0,1,416.62,110.76Zm-10.3-12h20.4a9.84,9.84,0,0,0-5.21-8.23,10.48,10.48,0,0,0-5-1.22,10.21,10.21,0,0,0-5,1.22,9.81,9.81,0,0,0-3.62,3.36A10.08,10.08,0,0,0,406.32,98.81Z"/><path class="cls-13" d="M440.73,110.33,430.3,88.43H432l9.49,20.22,9.55-20.22h1.69l-10.44,21.9Z"/></g></g></g></svg>